# xmcd CD database file
#
# Track frame offsets:
#	150
#	21287
#	33020
#	47575
#	65815
#	96250
#	114035
#	134965
#	150805
#	169505
#	181727
#	207652
#	219737
#
# Disc length: 3107 seconds
#
# Revision: 2
# Processed by: cddbd v1.4PL0 Copyright (c) Steve Scherf et al.
# Submitted via: CDex 1.40Release
#
DISCID=af0c210d
DTITLE=Taj Mahal - Senor Blues
DYEAR=1997
DGENRE=Blues
TTITLE0=Queen Bee
TTITLE1=Think
TTITLE2=Irresistible You
TTITLE3=Having a Real Bad Day
TTITLE4=Senor Blues
TTITLE5=Sophisticated Mama
TTITLE6=Oh Lord, Things Are Gettin' Crazy Up in Here
TTITLE7=I Miss You Baby
TTITLE8=You Rascal You
TTITLE9=Mind Your Business
TTITLE10=21st Century Gypsy Singin' Lover Man
TTITLE11=At Last (I Found a Love)
TTITLE12=Mr. Pitiful
EXTD=YEAR: 1997 ID3G: 0
EXTT0=
EXTT1=
EXTT2=
EXTT3=
EXTT4=
EXTT5=
EXTT6=
EXTT7=
EXTT8=
EXTT9=
EXTT10=
EXTT11=
EXTT12=
PLAYORDER=
